<svg preserveAspectRatio="none" overflow="visible" style="display: block;" width="58" height="58" viewBox="0 0 58 58" fill="none" xmlns="http://www.w3.org/2000/svg">
<g id="Collagen / four sparkles badge" clip-path="url(#clip0_0_87)">
<path id="Vector" d="M29 58C45.0163 58 58 45.0163 58 29C58 12.9837 45.0163 0 29 0C12.9837 0 0 12.9837 0 29C0 45.0163 12.9837 58 29 58Z" fill="#2E4B21"/>
<g id="Group">
<path id="Vector_2" d="M19.333 20.5417C21.7497 27.7917 22.958 29 28.9997 31.4167C22.958 33.8333 21.7497 35.0417 19.333 42.2917C16.9163 35.0417 15.708 33.8333 9.66634 31.4167C15.708 29 16.9163 27.7917 19.333 20.5417Z" fill="#F9F8F1"/>
<path id="Vector_3" d="M30.208 7.25C31.4163 12.0833 32.6247 14.5 37.458 15.7083C32.6247 16.9167 31.4163 19.3333 30.208 24.1667C28.9997 19.3333 27.7913 16.9167 22.958 15.7083C27.7913 14.5 28.9997 12.0833 30.208 7.25Z" fill="#F9F8F1"/>
<path id="Vector_4" d="M43.4997 19.3333C44.708 24.1667 45.9163 25.375 50.7497 26.5833C45.9163 27.7917 44.708 29 43.4997 33.8333C42.2913 29 41.083 27.7917 36.2497 26.5833C41.083 25.375 42.2913 24.1667 43.4997 19.3333Z" fill="#F9F8F1"/>
<path id="Vector_5" d="M35.0413 35.0417C36.2497 39.875 37.458 41.0833 42.2913 42.2917C37.458 43.5 36.2497 44.7083 35.0413 49.5417C33.833 44.7083 32.6247 43.5 27.7913 42.2917C32.6247 41.0833 33.833 39.875 35.0413 35.0417Z" fill="#F9F8F1"/>
</g>
</g>
<defs>
<clipPath id="clip0_0_87">
<rect width="58" height="58" fill="white"/>
</clipPath>
</defs>
</svg>
